<?xml version="1.0" standalone="no"?>
<!DOCTYPE svg PUBLIC "-//W3C//DTD SVG 20010904//EN"
 "http://www.w3.org/TR/2001/REC-SVG-20010904/DTD/svg10.dtd">
<svg version="1.0" xmlns="http://www.w3.org/2000/svg"
 width="5000.000000pt" height="5000.000000pt" viewBox="0 0 5000.000000 5000.000000"
 preserveAspectRatio="xMidYMid meet">

<g transform="translate(0.000000,5000.000000) scale(0.100000,-0.100000)"
fill="#000000" stroke="none">
<path d="M25455 36709 c-737 -51 -1426 -252 -1975 -579 -331 -196 -537 -433
-664 -766 -78 -205 -196 -439 -328 -649 -94 -148 -209 -384 -257 -527 -86
-253 -121 -475 -176 -1133 -19 -231 -105 -1351 -105 -1371 0 -2 -16 -4 -35 -4
-60 0 -137 -36 -187 -87 -72 -74 -119 -183 -155 -362 -15 -70 -18 -138 -18
-371 1 -244 5 -332 33 -610 17 -179 36 -373 42 -433 26 -261 117 -484 229
-561 89 -61 87 -57 95 -201 29 -523 174 -1071 431 -1625 37 -80 71 -158 76
-175 6 -20 -2 -113 -26 -305 -50 -402 -131 -771 -240 -1096 -112 -333 -216
-522 -339 -612 -53 -39 -476 -262 -726 -383 -246 -119 -434 -186 -1355 -479
-904 -288 -1846 -649 -2615 -1000 -1025 -468 -1441 -730 -1916 -1204 -384
-384 -602 -700 -899 -1301 -200 -405 -295 -633 -465 -1121 -485 -1387 -905
-3024 -1471 -5738 l-89 -428 49 -57 c62 -71 101 -107 101 -94 0 5 45 232 101
504 55 272 109 539 120 594 398 1977 817 3616 1250 4892 247 725 413 1128 654
1583 259 489 452 757 775 1081 328 329 610 529 1137 808 478 253 1069 524
1663 761 446 179 793 303 1670 598 503 170 937 321 1131 395 l67 25 -9 -31
c-29 -108 -11 -238 50 -362 90 -180 319 -440 526 -597 93 -70 439 -297 597
-391 669 -398 1285 -617 1928 -688 169 -19 563 -16 745 5 83 9 168 19 190 21
882 98 1327 173 1766 299 648 187 1037 423 1325 806 97 128 143 259 129 366
l-6 54 31 0 c54 0 629 -267 955 -443 273 -147 510 -269 930 -477 253 -125 676
-335 940 -465 264 -131 544 -266 623 -300 78 -35 149 -68 157 -75 22 -18 19
-46 -16 -135 -41 -108 -76 -255 -94 -400 -18 -142 -21 -698 -5 -955 32 -520
120 -1050 242 -1453 11 -37 18 -78 14 -90 -3 -12 -31 -52 -61 -87 -100 -114
-158 -266 -185 -480 -11 -90 -16 -265 -26 -895 -3 -214 -7 -406 -9 -425 -1
-19 -6 -82 -9 -140 -37 -597 -132 -1212 -290 -1875 -112 -472 -179 -892 -222
-1395 -25 -291 -25 -927 1 -1475 3 -55 7 -163 10 -240 8 -200 14 -295 30 -500
15 -174 51 -463 110 -870 55 -381 78 -561 100 -780 16 -164 26 -417 25 -672 0
-167 4 -293 9 -293 5 0 44 15 88 34 l78 33 -1 314 c-1 420 -30 731 -143 1509
-104 720 -126 949 -146 1515 -2 83 -8 251 -12 375 -15 425 -9 950 12 1105 3
17 11 95 20 175 36 331 97 680 194 1115 100 452 169 827 206 1125 8 69 17 142
20 164 3 21 7 75 11 120 6 84 19 142 34 151 5 3 53 -16 107 -43 458 -230 1146
-387 1738 -397 110 -2 247 1 305 6 314 28 673 118 990 249 164 68 164 68 178
33 7 -19 13 -285 16 -828 3 -440 8 -829 11 -865 3 -36 10 -144 16 -240 11
-186 34 -456 49 -580 5 -41 12 -100 15 -130 40 -374 135 -910 236 -1335 109
-456 139 -598 217 -1028 l7 -38 73 61 c42 35 72 69 72 80 0 60 -105 562 -209
1000 -187 788 -279 1378 -311 2000 -18 370 -33 1187 -34 1880 -1 625 2 749 26
1230 15 294 32 661 38 815 20 514 26 595 48 652 28 73 73 126 161 191 148 109
278 221 406 353 147 152 237 267 355 454 45 71 104 157 131 191 113 143 396
383 570 485 83 48 195 94 285 115 71 17 175 21 419 13 113 -3 141 0 210 19
160 46 285 135 336 239 35 70 33 169 -4 245 -35 71 -120 157 -206 208 -123 73
-408 154 -636 181 -135 16 -382 6 -507 -20 -113 -25 -277 -80 -362 -123 -117
-59 -353 -203 -548 -335 -208 -141 -257 -168 -290 -157 -40 12 -80 149 -178
609 -70 329 -85 377 -157 487 -199 305 -618 354 -887 105 -22 -21 -44 -37 -49
-37 -5 0 -32 20 -60 45 -29 25 -77 58 -107 73 -48 23 -67 27 -146 27 -85 0
-95 -2 -170 -39 -60 -30 -98 -58 -156 -116 -42 -43 -86 -96 -97 -119 -12 -22
-30 -45 -41 -51 -17 -9 -22 -7 -31 17 -68 180 -96 231 -165 300 -66 66 -140
97 -244 101 -160 8 -266 -33 -377 -143 -62 -62 -79 -88 -137 -207 -36 -75 -66
-141 -66 -147 0 -28 -18 -5 -49 64 -39 87 -93 148 -159 178 -38 18 -65 22
-142 22 -125 -1 -183 -26 -258 -112 -60 -70 -101 -93 -165 -93 -53 0 -181 61
-583 278 -306 164 -475 252 -1339 690 -357 181 -740 378 -850 437 -269 145
-363 191 -540 268 -186 80 -283 111 -428 137 -253 44 -377 155 -533 475 -226
467 -272 921 -154 1555 16 85 51 265 79 400 27 135 57 290 66 345 27 171 49
229 187 505 148 293 210 440 308 730 36 107 71 204 77 215 10 18 22 20 125 20
106 0 117 2 178 31 325 155 725 682 979 1289 108 259 141 403 141 615 0 203
-28 304 -111 394 -60 66 -127 97 -224 104 -91 6 -99 13 -91 77 13 97 39 182
136 435 156 409 210 591 259 880 57 339 75 594 68 975 -9 489 -73 960 -172
1273 -242 763 -789 1276 -1802 1688 -723 295 -1524 425 -2288 373z m-1280
-2558 c83 -11 278 -40 435 -65 444 -71 525 -78 982 -83 306 -4 495 -1 765 12
540 27 804 11 1103 -64 428 -108 704 -323 844 -657 96 -231 186 -725 248
-1364 26 -273 31 -768 10 -1000 -44 -483 -176 -1248 -332 -1922 -196 -844
-451 -1409 -878 -1944 -79 -99 -359 -390 -457 -475 -424 -366 -717 -585 -1063
-792 -520 -312 -1028 -480 -1452 -480 -564 0 -890 314 -1528 1473 -340 619
-566 1154 -672 1594 -91 377 -115 588 -115 1021 1 394 7 465 90 958 30 178 88
564 130 858 42 294 87 597 101 674 59 325 164 688 317 1095 60 161 255 626
294 705 47 93 126 196 213 278 131 123 228 174 375 198 79 13 426 1 590 -20z
m-2167 -2596 c115 -53 182 -137 182 -227 0 -41 -14 -132 -136 -888 -79 -494
-103 -729 -104 -1007 0 -115 -1 -123 -19 -123 -44 0 -132 149 -170 289 -25 91
-43 249 -76 661 -14 173 -30 374 -36 445 -23 277 15 585 90 733 67 132 155
170 269 117z m7419 -713 c98 -70 136 -272 99 -522 -27 -174 -92 -343 -256
-665 -250 -490 -506 -807 -751 -931 -91 -45 -144 -57 -185 -39 -43 18 -49 50
-24 122 42 124 214 989 275 1384 34 216 46 242 182 378 158 158 272 236 413
283 80 26 203 21 247 -10z m-1863 -3758 c9 -3 16 -15 16 -26 0 -11 -27 -145
-60 -297 -131 -596 -150 -713 -157 -976 -6 -224 4 -345 43 -523 63 -282 232
-656 370 -819 57 -67 171 -142 267 -178 92 -33 116 -56 123 -121 24 -202 -229
-523 -588 -746 -291 -181 -761 -346 -1273 -447 -452 -89 -1189 -185 -1629
-212 -639 -40 -1334 115 -1987 441 -319 160 -823 464 -1008 607 -274 214 -503
504 -540 685 -15 68 -7 117 27 181 51 95 150 165 472 330 243 125 328 190 435
331 147 197 319 742 400 1271 22 145 45 361 45 427 0 31 4 59 9 62 13 8 59
-31 67 -56 12 -37 438 -819 503 -923 299 -476 542 -715 846 -834 136 -53 235
-72 400 -78 218 -8 391 19 685 108 359 107 691 274 1145 573 489 323 895 677
1258 1099 60 70 111 127 113 127 1 0 9 -3 18 -6z m5845 -4269 c98 -49 164
-155 225 -361 38 -126 50 -146 90 -146 35 0 48 12 97 95 120 205 234 302 369
314 136 13 184 -24 271 -203 47 -100 64 -125 84 -130 54 -13 67 8 82 126 24
183 128 270 323 270 131 0 246 -46 340 -136 95 -90 127 -164 191 -444 52 -228
134 -527 167 -613 32 -81 73 -134 119 -153 63 -27 116 -4 363 156 266 173 524
325 634 372 191 83 364 113 600 105 190 -7 339 -35 548 -103 196 -64 294 -134
334 -241 43 -112 -53 -218 -246 -270 -55 -15 -101 -18 -299 -16 -261 3 -326
-6 -466 -60 -206 -79 -476 -269 -681 -479 -129 -132 -166 -181 -267 -345 -176
-286 -349 -468 -693 -731 -67 -51 -161 -127 -209 -170 -107 -95 -162 -134
-240 -172 -94 -45 -342 -118 -529 -155 -338 -67 -574 -85 -1146 -85 -392 0
-526 -7 -775 -36 -163 -19 -210 -14 -321 40 -108 52 -190 119 -207 169 -16 45
-81 352 -123 577 -102 558 -146 1209 -114 1695 26 382 109 636 259 786 74 73
137 103 218 104 55 0 65 -3 93 -30 39 -37 57 -71 105 -203 42 -116 74 -162
112 -162 55 0 68 20 122 194 100 319 240 464 449 466 58 0 82 -5 121 -25z
m1955 -3426 c3 -16 -1 -78 -9 -137 -15 -112 -30 -282 -40 -442 -3 -52 -7 -126
-10 -165 -3 -38 -7 -137 -10 -220 -3 -82 -8 -177 -10 -210 -3 -33 -7 -114 -10
-180 -4 -66 -8 -142 -10 -170 -7 -86 -24 -431 -31 -627 -7 -226 1 -214 -177
-286 -320 -131 -645 -209 -1012 -242 -121 -11 -536 -15 -610 -5 -22 2 -92 9
-155 16 -361 34 -764 139 -1196 310 -110 43 -159 68 -171 85 -16 25 -16 17 12
357 3 31 5 326 6 655 1 725 8 799 98 989 47 97 64 110 112 83 187 -107 275
-133 449 -134 69 0 166 6 215 13 50 7 104 14 120 16 56 8 368 15 790 20 449 4
595 14 850 61 272 49 476 109 662 194 59 27 113 49 119 50 6 0 14 -14 18 -31z"/>
<path d="M28764 29869 c-7 -12 -35 -361 -29 -367 6 -6 52 62 79 116 45 89 47
201 5 243 -21 21 -44 25 -55 8z"/>
<path d="M16976 16808 c-15 -23 -34 -153 -61 -428 -30 -310 -38 -507 -65
-1600 -11 -443 -22 -872 -25 -955 -3 -82 -7 -226 -10 -320 -9 -290 -25 -583
-45 -855 -14 -174 -20 -249 -25 -290 -3 -19 -12 -96 -20 -170 -69 -602 -193
-1140 -390 -1690 -30 -85 -55 -158 -55 -161 0 -4 35 -28 78 -53 65 -39 79 -43
88 -31 18 24 179 516 227 695 56 205 109 434 141 610 44 243 105 654 104 700
-3 94 15 271 26 260 7 -7 11 -110 13 -293 2 -155 7 -329 13 -387 5 -58 10
-237 10 -397 0 -161 2 -298 4 -305 3 -7 7 -143 11 -303 4 -159 8 -306 10 -325
1 -19 5 -98 9 -175 4 -77 9 -162 11 -190 3 -27 7 -90 11 -140 3 -49 8 -93 10
-96 6 -11 172 -99 185 -99 8 0 10 15 6 48 -18 134 -44 653 -62 1197 -11 361
-15 480 -20 675 -3 113 -7 282 -10 375 -3 94 -7 301 -10 460 -25 1297 -29
1397 -81 1720 -51 325 -52 341 -47 1476 4 745 2 1058 -5 1063 -6 4 -18 -4 -26
-16z"/>
<path d="M31116 16119 c-14 -17 -29 -43 -32 -57 -3 -15 -23 -67 -44 -117 -178
-417 -319 -942 -380 -1420 -41 -320 -45 -403 -45 -850 0 -533 13 -762 105
-1835 27 -316 61 -721 75 -900 14 -179 37 -460 50 -625 37 -450 53 -700 66
-1020 6 -159 12 -292 14 -294 6 -5 152 49 169 63 33 27 -28 927 -159 2316
-138 1469 -175 1975 -175 2404 0 464 44 901 129 1292 37 166 211 787 252 896
29 77 34 113 23 156 -8 29 -17 28 -48 -9z"/>
</g>
</svg>
